<svg width="75" height="76" viewBox="0 0 75 76" fill="none" xmlns="http://www.w3.org/2000/svg">
<g clip-path="url(#clip0_8_350)">
<path d="M0 7.53125C0 6.90965 0.24693 6.31351 0.686468 5.87397C1.12601 5.43443 1.72215 5.1875 2.34375 5.1875H9.375C9.8978 5.18764 10.4055 5.36258 10.8175 5.68449C11.2294 6.0064 11.5219 6.4568 11.6484 6.96406L13.5469 14.5625H67.9688C68.3129 14.5628 68.6527 14.6389 68.9641 14.7854C69.2756 14.9319 69.5509 15.1451 69.7706 15.41C69.9903 15.6749 70.149 15.9849 70.2353 16.3181C70.3217 16.6512 70.3336 16.9992 70.2703 17.3375L63.2391 54.8375C63.1385 55.3746 62.8535 55.8597 62.4332 56.2089C62.013 56.5581 61.4839 56.7495 60.9375 56.75H18.75C18.2036 56.7495 17.6745 56.5581 17.2543 56.2089C16.834 55.8597 16.549 55.3746 16.4484 54.8375L9.42188 17.4078L7.54688 9.875H2.34375C1.72215 9.875 1.12601 9.62807 0.686468 9.18853C0.24693 8.74899 0 8.15285 0 7.53125ZM14.5406 19.25L20.6953 52.0625H58.9922L65.1469 19.25H14.5406ZM23.4375 56.75C20.9511 56.75 18.5665 57.7377 16.8084 59.4959C15.0502 61.254 14.0625 63.6386 14.0625 66.125C14.0625 68.6114 15.0502 70.996 16.8084 72.7541C18.5665 74.5123 20.9511 75.5 23.4375 75.5C25.9239 75.5 28.3085 74.5123 30.0666 72.7541C31.8248 70.996 32.8125 68.6114 32.8125 66.125C32.8125 63.6386 31.8248 61.254 30.0666 59.4959C28.3085 57.7377 25.9239 56.75 23.4375 56.75ZM56.25 56.75C53.7636 56.75 51.379 57.7377 49.6209 59.4959C47.8627 61.254 46.875 63.6386 46.875 66.125C46.875 68.6114 47.8627 70.996 49.6209 72.7541C51.379 74.5123 53.7636 75.5 56.25 75.5C58.7364 75.5 61.121 74.5123 62.8791 72.7541C64.6373 70.996 65.625 68.6114 65.625 66.125C65.625 63.6386 64.6373 61.254 62.8791 59.4959C61.121 57.7377 58.7364 56.75 56.25 56.75ZM23.4375 61.4375C24.6807 61.4375 25.873 61.9314 26.7521 62.8104C27.6311 63.6895 28.125 64.8818 28.125 66.125C28.125 67.3682 27.6311 68.5605 26.7521 69.4396C25.873 70.3186 24.6807 70.8125 23.4375 70.8125C22.1943 70.8125 21.002 70.3186 20.1229 69.4396C19.2439 68.5605 18.75 67.3682 18.75 66.125C18.75 64.8818 19.2439 63.6895 20.1229 62.8104C21.002 61.9314 22.1943 61.4375 23.4375 61.4375ZM56.25 61.4375C57.4932 61.4375 58.6855 61.9314 59.5646 62.8104C60.4436 63.6895 60.9375 64.8818 60.9375 66.125C60.9375 67.3682 60.4436 68.5605 59.5646 69.4396C58.6855 70.3186 57.4932 70.8125 56.25 70.8125C55.0068 70.8125 53.8145 70.3186 52.9354 69.4396C52.0564 68.5605 51.5625 67.3682 51.5625 66.125C51.5625 64.8818 52.0564 63.6895 52.9354 62.8104C53.8145 61.9314 55.0068 61.4375 56.25 61.4375Z" fill="black"/>
</g>
<defs>
<clipPath id="clip0_8_350">
<rect width="75" height="75" fill="white" transform="translate(0 0.5)"/>
</clipPath>
</defs>
</svg>
