<svg width="83" height="78" viewBox="0 0 83 78" fill="none" xmlns="http://www.w3.org/2000/svg">
<g filter="url(#filter0_d_8_341)">
<path d="M48.0886 0.5H15C9.47715 0.5 5 4.97715 5 10.5V59.5C5 65.0229 9.47715 69.5 15 69.5H48.0886C51.0916 69.5 53.9357 68.1504 55.8349 65.8242L75.8369 41.3242C78.8418 37.6435 78.8418 32.3565 75.8369 28.6758L55.8349 4.17585C53.9357 1.84959 51.0916 0.5 48.0886 0.5Z" fill="#FFCDA8"/>
<path d="M48.0886 0.5H15C9.47715 0.5 5 4.97715 5 10.5V59.5C5 65.0229 9.47715 69.5 15 69.5H48.0886C51.0916 69.5 53.9357 68.1504 55.8349 65.8242L75.8369 41.3242C78.8418 37.6435 78.8418 32.3565 75.8369 28.6758L55.8349 4.17585C53.9357 1.84959 51.0916 0.5 48.0886 0.5Z" stroke="black"/>
</g>
<defs>
<filter id="filter0_d_8_341" x="0.5" y="0" width="82.0906" height="78" filterUnits="userSpaceOnUse" color-interpolation-filters="sRGB">
<feFlood flood-opacity="0" result="BackgroundImageFix"/>
<feColorMatrix in="SourceAlpha" type="matrix" values="0 0 0 0 0 0 0 0 0 0 0 0 0 0 0 0 0 0 127 0" result="hardAlpha"/>
<feOffset dy="4"/>
<feGaussianBlur stdDeviation="2"/>
<feComposite in2="hardAlpha" operator="out"/>
<feColorMatrix type="matrix" values="0 0 0 0 0 0 0 0 0 0 0 0 0 0 0 0 0 0 0.25 0"/>
<feBlend mode="normal" in2="BackgroundImageFix" result="effect1_dropShadow_8_341"/>
<feBlend mode="normal" in="SourceGraphic" in2="effect1_dropShadow_8_341" result="shape"/>
</filter>
</defs>
</svg>
