<svg xmlns="http://www.w3.org/2000/svg" width="36" height="36" viewBox="0 0 36 36" fill="none">
<g clip-path="url(#clip0_179_479)">
<path d="M27.14 34H8.86C8.47519 33.9909 8.09595 33.9061 7.74393 33.7504C7.39192 33.5947 7.07403 33.3712 6.80843 33.0926C6.54283 32.814 6.33473 32.4858 6.19602 32.1267C6.05731 31.7677 5.9907 31.3848 6 31V11.23H8V31C7.99046 31.1222 8.00516 31.2451 8.04327 31.3616C8.08138 31.4781 8.14214 31.5859 8.22206 31.6788C8.30199 31.7718 8.39949 31.848 8.50897 31.9031C8.61845 31.9582 8.73775 31.9911 8.86 32H27.14C27.2623 31.9911 27.3816 31.9582 27.491 31.9031C27.6005 31.848 27.698 31.7718 27.7779 31.6788C27.8579 31.5859 27.9186 31.4781 27.9567 31.3616C27.9948 31.2451 28.0095 31.1222 28 31V11.23H30V31C30.0093 31.3848 29.9427 31.7677 29.804 32.1267C29.6653 32.4858 29.4572 32.814 29.1916 33.0926C28.926 33.3712 28.6081 33.5947 28.2561 33.7504C27.9041 33.9061 27.5248 33.9909 27.14 34Z" fill="black"/>
<path d="M30.78 9H5C4.73478 9 4.48043 8.89464 4.29289 8.70711C4.10536 8.51957 4 8.26522 4 8C4 7.73478 4.10536 7.48043 4.29289 7.29289C4.48043 7.10536 4.73478 7 5 7H30.78C31.0452 7 31.2996 7.10536 31.4871 7.29289C31.6746 7.48043 31.78 7.73478 31.78 8C31.78 8.26522 31.6746 8.51957 31.4871 8.70711C31.2996 8.89464 31.0452 9 30.78 9Z" fill="black"/>
<path d="M21 13H23V28H21V13Z" fill="black"/>
<path d="M13 13H15V28H13V13Z" fill="black"/>
<path d="M23 5.86H21.1V4H14.9V5.86H13V4C12.9994 3.48645 13.1963 2.99233 13.55 2.62C13.9037 2.24767 14.3871 2.02568 14.9 2H21.1C21.6129 2.02568 22.0963 2.24767 22.45 2.62C22.8037 2.99233 23.0006 3.48645 23 4V5.86Z" fill="black"/>
</g>
<defs>
<clipPath id="clip0_179_479">
<rect width="36" height="36" fill="white"/>
</clipPath>
</defs>
</svg>